<svg width="87" height="30" viewBox="0 0 87 30" fill="none" xmlns="http://www.w3.org/2000/svg">
<path d="M47.58 21.126C46.704 21.126 45.912 20.976 45.204 20.676C44.508 20.376 43.956 19.944 43.548 19.38C43.14 18.816 42.93 18.15 42.918 17.382H45.618C45.654 17.898 45.834 18.306 46.158 18.606C46.494 18.906 46.95 19.056 47.526 19.056C48.114 19.056 48.576 18.918 48.912 18.642C49.248 18.354 49.416 17.982 49.416 17.526C49.416 17.154 49.302 16.848 49.074 16.608C48.846 16.368 48.558 16.182 48.21 16.05C47.874 15.906 47.406 15.75 46.806 15.582C45.99 15.342 45.324 15.108 44.808 14.88C44.304 14.64 43.866 14.286 43.494 13.818C43.134 13.338 42.954 12.702 42.954 11.91C42.954 11.166 43.14 10.518 43.512 9.966C43.884 9.414 44.406 8.994 45.078 8.706C45.75 8.406 46.518 8.256 47.382 8.256C48.678 8.256 49.728 8.574 50.532 9.21C51.348 9.834 51.798 10.71 51.882 11.838H49.11C49.086 11.406 48.9 11.052 48.552 10.776C48.216 10.488 47.766 10.344 47.202 10.344C46.71 10.344 46.314 10.47 46.014 10.722C45.726 10.974 45.582 11.34 45.582 11.82C45.582 12.156 45.69 12.438 45.906 12.666C46.134 12.882 46.41 13.062 46.734 13.206C47.07 13.338 47.538 13.494 48.138 13.674C48.954 13.914 49.62 14.154 50.136 14.394C50.652 14.634 51.096 14.994 51.468 15.474C51.84 15.954 52.026 16.584 52.026 17.364C52.026 18.036 51.852 18.66 51.504 19.236C51.156 19.812 50.646 20.274 49.974 20.622C49.302 20.958 48.504 21.126 47.58 21.126ZM61.9148 18.606H56.9108L56.0828 21H53.4368L57.9548 8.418H60.8888L65.4068 21H62.7428L61.9148 18.606ZM61.2308 16.59L59.4128 11.334L57.5947 16.59H61.2308ZM76.2575 12.324C76.2575 12.996 76.0955 13.626 75.7715 14.214C75.4595 14.802 74.9615 15.276 74.2775 15.636C73.6055 15.996 72.7535 16.176 71.7215 16.176H69.6155V21H67.0955V8.436H71.7215C72.6935 8.436 73.5215 8.604 74.2055 8.94C74.8895 9.276 75.3995 9.738 75.7355 10.326C76.0835 10.914 76.2575 11.58 76.2575 12.324ZM71.6135 14.142C72.3095 14.142 72.8255 13.986 73.1615 13.674C73.4975 13.35 73.6655 12.9 73.6655 12.324C73.6655 11.1 72.9815 10.488 71.6135 10.488H69.6155V14.142H71.6135ZM80.5667 10.47V13.62H84.7967V15.618H80.5667V18.948H85.3367V21H78.0467V8.418H85.3367V10.47H80.5667Z" fill="#FAFAFA"/>
<circle cx="15" cy="15" r="15" fill="#FAFAFA"/>
<path d="M11.4439 10.0963C11.3093 10.035 11.1591 10.0165 11.0137 10.0434C10.8682 10.0703 10.7345 10.1412 10.6308 10.2466C9.84147 11.089 9.14832 12.0165 8.56412 13.0121C7.2565 15.2253 6.75238 17.408 7.10605 19.3215C7.37256 20.7634 8.20096 22.0404 9.409 22.8715C10.617 23.7027 12.1058 24.0199 13.5477 23.7533C14.9896 23.4868 16.2666 22.6584 17.0977 21.4504C17.9289 20.2424 18.2461 18.7536 17.9796 17.3117C17.1346 12.7401 11.6761 10.2019 11.4439 10.0963ZM13.2856 22.3351C12.2199 22.5309 11.1201 22.296 10.2275 21.6818C9.33488 21.0677 8.72236 20.1246 8.52434 19.0593C8.16051 17.0909 9.01407 15.096 9.78972 13.7707C10.2335 13.0193 10.7422 12.3082 11.3098 11.6453C12.0768 12.0615 12.806 12.5439 13.4891 13.0869C14.6872 14.0474 16.1975 15.6054 16.5613 17.5738C16.7571 18.6395 16.5222 19.7393 15.9081 20.6319C15.2939 21.5245 14.3508 22.137 13.2856 22.3351ZM15.6455 18.6965C15.5843 19.1958 15.4034 19.673 15.1183 20.0875C14.8331 20.5019 14.4521 20.8414 14.0076 21.0771C13.9427 21.1112 13.873 21.1355 13.8009 21.1489C13.6314 21.1804 13.4563 21.1501 13.3072 21.0635C13.1581 20.9769 13.045 20.8398 12.9883 20.677C12.9316 20.5142 12.9351 20.3365 12.9982 20.1761C13.0612 20.0156 13.1797 19.8831 13.332 19.8025C13.5716 19.6756 13.7769 19.4926 13.9306 19.2693C14.0842 19.046 14.1817 18.7888 14.2146 18.5197C14.2261 18.4257 14.256 18.3349 14.3026 18.2524C14.3492 18.17 14.4116 18.0975 14.4862 18.0392C14.637 17.9213 14.8283 17.8682 15.0182 17.8914C15.1122 17.903 15.203 17.9329 15.2855 17.9795C15.368 18.0261 15.4404 18.0885 15.4988 18.1631C15.5571 18.2378 15.6002 18.3232 15.6255 18.4144C15.6509 18.5057 15.658 18.6011 15.6465 18.6951L15.6455 18.6965Z" fill="#2563EB"/>
<path d="M19.9519 5.72115V5.43269C19.9519 5.31794 19.9975 5.20788 20.0786 5.12673C20.1598 5.04559 20.2698 5 20.3846 5C20.4993 5 20.6094 5.04559 20.6905 5.12673C20.7717 5.20788 20.8173 5.31794 20.8173 5.43269V5.72115C20.8173 5.83591 20.7717 5.94597 20.6905 6.02711C20.6094 6.10826 20.4993 6.15385 20.3846 6.15385C20.2698 6.15385 20.1598 6.10826 20.0786 6.02711C19.9975 5.94597 19.9519 5.83591 19.9519 5.72115ZM22.9807 7.01923C23.0376 7.01928 23.0939 7.00812 23.1464 6.9864C23.1989 6.96469 23.2467 6.93284 23.2869 6.89267L23.5753 6.60421C23.6156 6.56396 23.6475 6.51618 23.6693 6.46359C23.6911 6.411 23.7023 6.35464 23.7023 6.29772C23.7023 6.2408 23.6911 6.18443 23.6693 6.13184C23.6475 6.07926 23.6156 6.03147 23.5753 5.99123C23.5351 5.95098 23.4873 5.91905 23.4347 5.89727C23.3821 5.87548 23.3258 5.86427 23.2688 5.86427C23.2119 5.86427 23.1556 5.87548 23.103 5.89727C23.0504 5.91905 23.0026 5.95098 22.9624 5.99123L22.6739 6.27969C22.613 6.34021 22.5715 6.41746 22.5547 6.50163C22.5378 6.5858 22.5464 6.67308 22.5793 6.75237C22.6122 6.83165 22.6679 6.89936 22.7394 6.94688C22.8109 6.9944 22.8949 7.01959 22.9807 7.01923ZM17.4823 6.89267C17.5636 6.97395 17.6738 7.01962 17.7888 7.01962C17.9038 7.01962 18.014 6.97395 18.0953 6.89267C18.1766 6.81138 18.2222 6.70113 18.2222 6.58618C18.2222 6.47122 18.1766 6.36097 18.0953 6.27969L17.8068 5.99123C17.7255 5.90994 17.6153 5.86427 17.5003 5.86427C17.3854 5.86427 17.2751 5.90994 17.1938 5.99123C17.1126 6.07251 17.0669 6.18276 17.0669 6.29772C17.0669 6.41267 17.1126 6.52292 17.1938 6.60421L17.4823 6.89267ZM24.2788 11.3462V12.2115C24.2788 12.4028 24.2028 12.5862 24.0676 12.7215C23.9324 12.8567 23.7489 12.9327 23.5577 12.9327H17.2115C17.0202 12.9327 16.8368 12.8567 16.7016 12.7215C16.5663 12.5862 16.4904 12.4028 16.4904 12.2115V11.3462C16.4903 11.1799 16.5477 11.0188 16.6529 10.89C16.758 10.7612 16.9044 10.6727 17.0673 10.6394V10.0481C17.0673 9.16827 17.4168 8.3245 18.0389 7.70239C18.661 7.08027 19.5048 6.73077 20.3846 6.73077H20.4102C22.2235 6.74447 23.7019 8.2488 23.7019 10.0841V10.6394C23.8648 10.6727 24.0112 10.7612 24.1163 10.89C24.2214 11.0188 24.2789 11.1799 24.2788 11.3462ZM17.9327 10.0481V10.625H22.8365V10.0841C22.8365 8.72224 21.745 7.60625 20.4033 7.59615H20.3846C19.7343 7.59615 19.1106 7.85448 18.6508 8.31431C18.191 8.77413 17.9327 9.39779 17.9327 10.0481ZM23.4134 11.4904H17.3557V12.0673H23.4134V11.4904ZM20.6875 9.08461C20.8426 9.13337 20.9837 9.21889 21.0988 9.3339C21.2138 9.44892 21.2993 9.59002 21.348 9.74519C21.3825 9.85469 21.459 9.94603 21.5608 9.99911C21.6625 10.0522 21.7812 10.0627 21.8907 10.0282C22.0002 9.99382 22.0916 9.9173 22.1446 9.81553C22.1977 9.71376 22.2082 9.59507 22.1738 9.48558C22.0832 9.19764 21.9244 8.93582 21.711 8.72238C21.4976 8.50894 21.2357 8.35019 20.9478 8.25962C20.8383 8.22519 20.7196 8.23567 20.6179 8.28875C20.5161 8.34183 20.4396 8.43317 20.4051 8.54267C20.3707 8.65217 20.3812 8.77085 20.4343 8.87262C20.4874 8.97439 20.5787 9.05091 20.6882 9.08534L20.6875 9.08461Z" fill="#2563EB"/>
</svg>
