<svg width="1440" height="1024" viewBox="0 0 1440 1024" fill="none" xmlns="http://www.w3.org/2000/svg">
<g clip-path="url(#clip0_7_1317)">
<rect width="1610" height="1024" transform="translate(-85)" fill="#EEEEEE"/>
<path d="M316.316 404.618C309.598 391.997 301.735 379.833 296.458 366.636C290.167 350.895 292.5 344.512 306.423 335.301C324.218 323.532 342.356 312.186 360.978 301.792C377.069 292.81 387.607 280.775 390.479 262.187C393.622 241.861 397.397 221.636 400.9 201.369C411.897 201.059 422.89 200.747 433.884 200.431C432.778 228.359 431.674 256.291 430.585 283.841C419.673 287.325 410.162 288.879 402.244 293.295C394.041 297.87 387.295 305.119 380.071 311.379C371.582 318.734 362.056 325.835 371.045 337.936C368.621 340.228 367.798 341.553 366.632 342.026C342.066 351.988 326.83 367.702 334.835 396.812C327.496 399.905 321.907 402.261 316.318 404.618H316.316Z" fill="#E5E5E5"/>
<path d="M494.537 137.309C502.732 112.19 512.947 55.8453 520.282 30.4711C524.689 15.2292 534.92 -2.43775 553.518 -0.706854L502.121 0.00471303C487.497 23.2485 470.725 49.9083 453.949 76.5724C453.103 75.9983 452.26 75.5334 451.431 75.2649C448.572 79.9491 442.226 93.6129 438.843 97.8976C421.308 120.089 411.742 145.365 408.571 173.308C408.037 178.027 406.478 182.631 405.4 187.282C416.028 185.61 428.494 186.745 436.669 181.365C442.872 177.283 443.24 164.735 447.014 156.316C448.116 153.856 451.992 152.642 454.597 150.857L454.484 151.027C464.176 146.854 473.866 142.68 483.557 138.507L494.539 137.309H494.537ZM462.949 88.7825C462.973 88.8153 462.997 88.848 463.021 88.8786Z" fill="#E5E5E5"/>
<path d="M483.709 138.442C483.657 138.463 483.605 138.487 483.553 138.509C483.536 138.559 483.518 138.608 483.503 138.656C483.503 138.656 483.709 138.44 483.709 138.442Z" fill="#E5E5E5"/>
<path d="M365.912 606.91C360.76 607.068 348.017 607.17 342.866 607.325C343.15 593.288 335.619 585.793 322.527 582.804C319.858 582.195 317.344 580.934 314.707 580.146C282 570.363 274.353 542.841 296.976 516.258C296.956 520.361 296.794 524.471 296.947 528.57C297.259 536.956 302.124 540.49 310.118 541.16C326.4 542.524 348.274 541.706 364.54 543.247C364.341 563.625 366.113 586.535 365.917 606.91H365.912Z" fill="#E5E5E5"/>
<path d="M1016.52 706.15L964.316 807C943.068 801.459 921.952 795.952 900.835 790.445C917.425 760.284 945.065 710.059 961.623 679.883L1016.52 706.15H1016.52Z" fill="#E5E5E5"/>
<path d="M680.551 547.689L682.45 739.162L894.997 789.281L959.392 678.499L680.957 541.627L680.551 547.689Z" fill="#E5E5E5"/>
<path d="M313.629 653.538L313.787 653.319C313.733 653.374 313.679 653.428 313.625 653.482C313.625 653.501 313.625 653.519 313.627 653.538H313.629Z" fill="#E5E5E5"/>
<path d="M309.777 657.639C309.714 657.611 309.648 657.582 309.585 657.554C309.548 657.591 309.511 657.628 309.474 657.665L309.777 657.639V657.639Z" fill="#E5E5E5"/>
<path d="M325.811 612.232C323.509 607.587 322.119 602.052 318.673 598.524C314.443 594.196 308.902 589.85 303.215 588.486C285.525 584.241 280.815 570.097 275.361 555.824C269.908 541.551 270.255 527.357 275.634 513.499C281.863 497.458 289.058 481.788 295.928 466C311.41 430.411 307.036 412.6 276.339 386.624C276.795 405.934 269.451 422.848 258.911 438.247C249.921 451.378 247.689 465.477 246.814 480.946C245.749 499.765 241.919 518.429 239.285 537.162C239.188 539.936 239.09 542.71 238.994 545.484C238.994 554.213 238.994 562.942 238.994 572.727C224.08 576.538 211.01 579.877 197.933 583.213C201.047 599.04 204.166 614.869 207.411 631.335C218.532 632.038 228.628 632.675 238.724 633.315C241.404 633.35 244.086 633.385 246.764 633.428C251.298 634.26 256.159 634.315 260.32 636.045C276.858 642.932 293.182 650.338 309.585 657.554C310.932 656.196 312.278 654.841 313.625 653.483C325.211 641.238 328.465 624.141 325.809 612.232H325.811ZM285.391 633.158C275.451 633.158 267.391 625.097 267.391 615.155C267.391 605.212 275.451 597.152 285.391 597.152C295.332 597.152 303.392 605.212 303.392 615.155C303.392 625.097 295.332 633.158 285.391 633.158Z" fill="#E5E5E5"/>
<path d="M593.13 446.734L676.544 448.916V301.452H588.765L593.13 446.734Z" fill="#E5E5E5"/>
<path d="M593.996 857.395L679.497 860.988L680.575 925.304L641.777 946.863L633.864 946.308L623.454 908.058L594.714 894.045L593.996 857.395Z" fill="#E5E5E5"/>
<path d="M592.737 738.825L501.678 737.053L499.017 637.999L590.522 638.885L592.737 738.825Z" fill="#E5E5E5"/>
<path d="M882.462 348.502L835.443 310.214L775.881 383.383L822.901 421.671L882.462 348.502Z" fill="#E5E5E5"/>
<path d="M218.997 204.711L195.031 301.438L190.568 418.101L174.676 424.247L156.121 207.25L218.997 204.711Z" fill="#E5E5E5"/>
<path d="M1397.85 293.271L1379.12 340.891L1328.39 303.42L1344.78 274.536L1397.85 293.271Z" fill="#E5E5E5"/>
<path d="M1518.71 1048.32L1405.81 1045.66L1410.32 886.718L1419.42 720.139L1330.63 716.533L1337.39 606.539L1424.83 611.498L1434.29 551.094L1582.05 556.869V574.479L1617.35 577.507L1564.87 798.045L1564.4 968.369L1570.75 1050.61L1518.71 1048.32Z" fill="#E5E5E5"/>
<path d="M805.182 474.286L826.895 446.858L892.791 444.952L876.413 476.574L859.652 470.477L845.65 494.616L805.182 474.286Z" fill="#E5E5E5"/>
<path d="M23.7823 131.071L64.1583 88.68L57.6592 46.7216L47.2079 48.1643L41.5861 56.3605L4.78259 116.123L23.7823 131.071Z" fill="#E5E5E5"/>
<path d="M959.329 235.145L917.777 280.377L908.831 281.467L905.006 257.629L931.908 207.051L959.329 235.145Z" fill="#E5E5E5"/>
<path d="M963.993 173.097L928.913 210.618L957.481 236.607L1014.69 177.229L1004.29 168.151L982.72 189.729L963.993 173.097Z" fill="#E5E5E5"/>
<path d="M1027.42 176.153L1070.57 131.612L1035.93 98.9475L1004.06 130.82L1012.71 139.149L1000.95 150.414L1027.42 176.153Z" fill="#E5E5E5"/>
<path d="M1104.53 16.4973L1047.6 79.5518L1090.92 118.334L1149.7 53.7345L1104.53 16.4973Z" fill="#E5E5E5"/>
<path d="M1303.75 1028.67L1312.81 880.135L1194.84 872.713L1125.66 850.308L1070.75 951.859L1005.52 1030.94L1303.75 1028.67Z" fill="#E5E5E5"/>
<path d="M116.365 877.686L175.961 797.752L141.857 740.561L112.576 752.273L115.677 769.846L106.376 785.35L89.1506 791.206L116.365 877.686Z" fill="#E5E5E5"/>
<path d="M417.497 799.819L402.862 794.941L398.716 753.845L421.445 740.604L411.282 639.023L372.87 640.976L361.836 725.391L317.405 746.535L292.962 733.602C290.084 750.494 286.359 767.306 284.779 784.318C283.102 802.38 293.091 815.786 307.77 824.711C318.85 831.449 331.16 838.611 342.969 844.124L424.18 845.801L422.172 801.779C420.443 801.203 418.9 800.542 417.495 799.817L417.497 799.819Z" fill="#E5E5E5"/>
<path d="M490.41 -1.45325C474.756 20.8433 454.001 55.8497 444.187 69.4983C433.978 83.6947 421.886 96.7452 414.328 112.515C406.969 127.871 404.311 144.975 401.151 161.705C395.411 192.089 387.758 222.073 380.111 252.033C377.915 260.63 375.94 269.826 371.914 277.798C368.182 285.184 361.196 289.698 353.929 293.491C327.527 307.271 300.317 319.289 280.112 341.939C272.716 350.229 266.527 360.304 269.089 371.862C273.696 392.635 298.13 401.726 303.606 422.641C307.497 437.503 302.128 452.957 296.229 466.516C289.361 482.305 282.164 497.973 275.935 514.014C270.556 527.872 270.209 542.066 275.663 556.339C281.116 570.612 285.824 584.756 303.516 589.001C309.203 590.365 314.744 594.711 318.974 599.04C322.42 602.567 323.81 608.102 326.112 612.747C326.937 627.956 324.074 642.078 313.93 654.055L314.09 653.835C312.651 655.284 311.213 656.733 309.775 658.18C309.775 658.18 310.076 658.154 310.074 658.154C308.54 664.065 304.922 670.332 305.858 675.819C308.972 694.062 299.762 705.74 287.155 716.136C277.729 723.911 271.754 732.904 271.78 745.921C271.795 753.987 270.119 762.423 267.374 770.032C259.932 790.665 278.244 816.022 292.545 829.28C297.445 833.822 302.879 837.768 308.693 841.053C315.203 844.731 322.714 846.388 329.34 849.882C339.115 855.038 339.968 865.545 340.811 875.422C341.302 881.174 341.524 886.949 340.66 892.677C339.124 902.881 335.527 912.78 329.807 921.39C318.005 939.156 302.586 955.105 294.756 975.251C288.759 990.679 286.199 1016.23 291.079 1033.65H310.393C309.094 1027 304.28 1014.77 303.712 1011.17C302.067 1000.76 301.489 989.644 304.594 979.44C311.137 957.938 332.683 942.142 343.296 922.458C348.844 912.166 352.547 900.884 354.173 889.307C354.867 884.361 355.186 879.371 355.504 874.388C355.797 869.8 356.085 865.131 355.042 860.652C353.673 854.769 350.09 849.616 345.924 845.246C344.113 843.347 342.127 841.529 339.717 840.486C334.346 837.801 328.64 835.703 323.19 833.163C318.011 830.746 312.922 828.177 308.066 825.226C293.857 816.585 283.46 802.223 285.075 784.833C286.703 767.299 290.616 749.979 293.527 732.565C294.341 727.694 301.685 720.323 304.23 715.826C307.601 709.865 310.596 703.684 312.998 697.266C316.979 686.637 317.053 674.533 323.066 664.67C329.613 653.931 335.433 645.381 334.253 632.023C333.386 622.216 337.891 616.722 342.111 608.635C348.46 596.471 333.098 585.666 322.821 583.322C320.152 582.713 317.638 581.451 315.002 580.663C300.747 576.4 286.627 566.738 284.558 550.913C283.585 543.478 285.498 535.996 288.8 529.358C292.779 521.359 299.38 515.145 303.359 507.001C310.417 492.558 315.585 475.877 319.829 460.384C324.351 443.885 325.327 426.915 319.1 410.697C313.538 396.204 303.754 383.804 298.141 369.468C293.163 356.753 296.388 342.336 308.101 334.603C324.591 323.713 342.057 314.242 358.859 303.822C374.358 294.209 388.836 279.094 392.81 260.886C397.877 237.66 404.51 215.195 409.021 191.825C413.462 168.808 416.761 141.637 426.641 120.209C437.555 96.5422 451.625 80.2657 466.384 58.7855C477.804 42.1619 491.261 18.5121 503.364 -1.45325H490.405L490.41 -1.45325ZM354.645 866.261C354.638 866.36 354.64 866.434 354.636 866.528C354.629 866.454 354.618 866.379 354.612 866.307C354.634 866.279 354.645 866.264 354.645 866.264V866.261Z" fill="#93C3EE"/>
<path d="M937.446 307.79L771.401 512.689L754.644 574.992" stroke="#FAFAFA" stroke-width="3" stroke-miterlimit="10" stroke-linecap="round"/>
<path d="M899.527 788.537L962.212 677.781" stroke="#FAFAFA" stroke-width="3" stroke-miterlimit="10" stroke-linecap="round"/>
<path d="M680.44 740.766L1070.19 832.422L1122.42 853.32" stroke="#FAFAFA" stroke-width="3" stroke-miterlimit="10" stroke-linecap="round"/>
<path d="M1070.19 947.36L984.522 920.192L595.888 1145.89L583.353 1164.7" stroke="#FAFAFA" stroke-width="3" stroke-miterlimit="10" stroke-linecap="round"/>
<path d="M1405.34 296.726L1434.09 309.504L1459.64 300.984L1502.23 266.91L1524.58 232.836L1546.94 185.983C1546.94 185.983 1560.78 163.621 1579.95 165.752C1599.11 167.882 1621.47 190.242 1621.47 190.242L1656.6 211.539H1680.03L1698.12 190.242L1717.29 122.093L1737.52 34.7776L1759.87 8.15711L1785.43 -17.3982" stroke="#FAFAFA" stroke-width="3" stroke-miterlimit="10" stroke-linecap="round"/>
<path d="M1330.08 714.693L1417.96 719.259L1410.86 884.568L1325.94 879.388L1194.23 871.57L1125.05 849.164" stroke="#FAFAFA" stroke-width="3" stroke-miterlimit="10" stroke-linecap="round"/>
<path d="M1457.45 1046.35L1460.99 924.219L1473.1 923.545L1465.79 844.617L1452.25 818.446L1319.69 799.943L1233.01 797.881L1166.3 775.999L678.947 540.446" stroke="#FAFAFA" stroke-width="3" stroke-miterlimit="10" stroke-linecap="round"/>
<path d="M1323.63 714.411L1241.09 710.284" stroke="#FAFAFA" stroke-width="3" stroke-miterlimit="10" stroke-linecap="round"/>
<path d="M1286.32 709.959L1290.46 675.029" stroke="#FAFAFA" stroke-width="3" stroke-miterlimit="10" stroke-linecap="round"/>
<path d="M1338.69 605.625L1424.63 609.761L1436.95 532.652L1417.74 527.948L1419.04 487.983" stroke="#FAFAFA" stroke-width="3" stroke-miterlimit="10" stroke-linecap="round"/>
<path d="M1354.32 479.228L1490.35 520.592" stroke="#FAFAFA" stroke-width="3" stroke-miterlimit="10" stroke-linecap="round"/>
<path d="M1367.94 506.117L1363.51 539.896L1381.6 606.675" stroke="#FAFAFA" stroke-width="3" stroke-miterlimit="10" stroke-linecap="round"/>
<path d="M1373.12 567.582L1426.81 576.06" stroke="#FAFAFA" stroke-width="3" stroke-miterlimit="10" stroke-linecap="round"/>
<path d="M1255.05 636.44L1299.62 584.727L1298.06 562.529L1296.08 559.499L1242.7 625.188" stroke="#FAFAFA" stroke-width="3" stroke-linecap="round" stroke-linejoin="round"/>
<path d="M1271.28 651.589L1226.4 615.061" stroke="#FAFAFA" stroke-width="3" stroke-miterlimit="10" stroke-linecap="round"/>
<path d="M1350.72 453.419L1120.83 751.376" stroke="#FAFAFA" stroke-width="3" stroke-miterlimit="10" stroke-linecap="round"/>
<path d="M1118.74 628.128L1172.82 661.555" stroke="#FAFAFA" stroke-width="3" stroke-miterlimit="10" stroke-linecap="round"/>
<path d="M1229.6 473.786L1164.51 550.817L1139.75 578.328L1110.41 643.436L1061.19 723.906" stroke="#FAFAFA" stroke-width="3" stroke-miterlimit="10" stroke-linecap="round"/>
<path d="M1197.52 590.247L1115 495.795L1091.16 464.614" stroke="#FAFAFA" stroke-width="3" stroke-miterlimit="10" stroke-linecap="round"/>
<path d="M1223.19 389.42L989.382 604.003L973.796 593L957.291 533.392" stroke="#FAFAFA" stroke-width="3" stroke-miterlimit="10" stroke-linecap="round"/>
<path d="M771.401 512.689L859.184 562.736L949.039 607.672L974.693 595.032" stroke="#FAFAFA" stroke-width="3" stroke-miterlimit="10" stroke-linecap="round"/>
<path d="M836.352 613.45L924.284 428.85L1090.24 256.45" stroke="#FAFAFA" stroke-width="3" stroke-miterlimit="10" stroke-linecap="round"/>
<path d="M1126.91 293.131L1017.81 420.598L899.527 641.603" stroke="#FAFAFA" stroke-width="3" stroke-miterlimit="10" stroke-linecap="round"/>
<path d="M1029.73 653.522L991.277 641.087L969.105 679.074" stroke="#FAFAFA" stroke-width="3" stroke-miterlimit="10" stroke-linecap="round"/>
<path d="M1041.69 634.502L1104.04 648.258" stroke="#FAFAFA" stroke-width="3" stroke-miterlimit="10" stroke-linecap="round"/>
<path d="M1181.93 433.436L1289.89 525.929" stroke="#FAFAFA" stroke-width="3" stroke-miterlimit="10" stroke-linecap="round"/>
<path d="M1329.05 476.757L978.525 156.202" stroke="#FAFAFA" stroke-width="3" stroke-miterlimit="10" stroke-linecap="round"/>
<path d="M962.677 251.862L1096.66 373.828" stroke="#FAFAFA" stroke-width="3" stroke-miterlimit="10" stroke-linecap="round"/>
<path d="M1125.08 386.667L1156.26 361.909L1175.15 379.92" stroke="#FAFAFA" stroke-width="3" stroke-miterlimit="10" stroke-linecap="round"/>
<path d="M964.078 555.551L1102.16 448.109L1199.07 358.508" stroke="#FAFAFA" stroke-width="3" stroke-miterlimit="10" stroke-linecap="round"/>
<path d="M1250.69 303.217L1202.1 356.406" stroke="#FAFAFA" stroke-width="3" stroke-miterlimit="10" stroke-linecap="round"/>
<path d="M374.264 1162.64L507.092 1077.35L500.532 736.213L484.133 193.337" stroke="#FAFAFA" stroke-width="3" stroke-miterlimit="10" stroke-linecap="round"/>
<path d="M438.219 309.785L458.443 637.097" stroke="#FAFAFA" stroke-width="3" stroke-miterlimit="10" stroke-linecap="round"/>
<path d="M369.345 637.807H669.436" stroke="#FAFAFA" stroke-width="3" stroke-miterlimit="10" stroke-linecap="round"/>
<path d="M677.668 540.15L405.422 539.399L379.183 439.354L685.834 450.833L913.772 440.993" stroke="#FAFAFA" stroke-width="3" stroke-miterlimit="10" stroke-linecap="round"/>
<path d="M762.888 446.306L760.952 397.886L679.709 399.207" stroke="#FAFAFA" stroke-width="3" stroke-miterlimit="10" stroke-linecap="round"/>
<path d="M391.382 358.488L402.728 373.174L487.985 375.177" stroke="#FAFAFA" stroke-width="3" stroke-miterlimit="10" stroke-linecap="round"/>
<path d="M440.039 331.012L582.853 201.503" stroke="#FAFAFA" stroke-width="3" stroke-miterlimit="10" stroke-linecap="round"/>
<path d="M488.57 298.745L761.135 294.072L884.38 290.328" stroke="#FAFAFA" stroke-width="3" stroke-miterlimit="10" stroke-linecap="round"/>
<path d="M760.951 294.96L761.229 343.104L682.377 344.137" stroke="#FAFAFA" stroke-width="3" stroke-miterlimit="10" stroke-linecap="round"/>
<path d="M677.865 245.262L760.317 244.087" stroke="#FAFAFA" stroke-width="3" stroke-miterlimit="10" stroke-linecap="round"/>
<path d="M761.345 171.562L761.229 293.853" stroke="#FAFAFA" stroke-width="3" stroke-miterlimit="10" stroke-linecap="round"/>
<path d="M806.519 171.914V288.27" stroke="#FAFAFA" stroke-width="3" stroke-miterlimit="10" stroke-linecap="round"/>
<path d="M847.899 163.235L851.424 286.797" stroke="#FAFAFA" stroke-width="3" stroke-miterlimit="10" stroke-linecap="round"/>
<path d="M962.238 145.793L884.085 289.447L1016.76 410.889" stroke="#FAFAFA" stroke-width="3" stroke-miterlimit="10" stroke-linecap="round"/>
<path d="M1141.14 196.886L1092.91 252.238" stroke="#FAFAFA" stroke-width="3" stroke-miterlimit="10" stroke-linecap="round"/>
<path d="M1081.23 145.599L977.355 263.837" stroke="#FAFAFA" stroke-width="3" stroke-miterlimit="10" stroke-linecap="round"/>
<path d="M1091.43 139.184L1110.27 117.9L1256.89 254.004" stroke="#FAFAFA" stroke-width="3" stroke-miterlimit="10" stroke-linecap="round"/>
<path d="M1240.53 276.374L1313.29 188.692L1343.7 109.361" stroke="#FAFAFA" stroke-width="3" stroke-miterlimit="10" stroke-linecap="round"/>
<path d="M1191.03 -42.7395L1210.71 24.0649L1274.52 72.9753L1437.93 170.798" stroke="#FAFAFA" stroke-width="3" stroke-miterlimit="10" stroke-linecap="round"/>
<path d="M1271.54 241.778L1308.51 274.584L1360.13 229.291L1373.28 182.681" stroke="#FAFAFA" stroke-width="3" stroke-miterlimit="10" stroke-linecap="round"/>
<path d="M1298.97 324.091L1322.23 297.25" stroke="#FAFAFA" stroke-width="3" stroke-miterlimit="10" stroke-linecap="round"/>
<path d="M1432.78 42.2032L1384.12 13.8256L1343.7 109.361" stroke="#FAFAFA" stroke-width="3" stroke-miterlimit="10" stroke-linecap="round"/>
<path d="M1460.89 -100.826L1427.11 -105.945L1349.32 -24.0511L1282.28 60.5599" stroke="#FAFAFA" stroke-width="3" stroke-miterlimit="10" stroke-linecap="round"/>
<path d="M1205.72 3.73705L1235.71 -45.5488L1262.32 -55.7858L1290.81 48.7797" stroke="#FAFAFA" stroke-width="3" stroke-miterlimit="10" stroke-linecap="round"/>
<path d="M1378.05 27.3215L1347.39 4.02965L1365.06 -15.868L1354.7 -25.4589" stroke="#FAFAFA" stroke-width="3" stroke-miterlimit="10" stroke-linecap="round"/>
<path d="M1383.77 14.0876L1365.06 -15.8681" stroke="#FAFAFA" stroke-width="3" stroke-miterlimit="10" stroke-linecap="round"/>
<path d="M1018.95 -4.10974L1061.91 30.2637" stroke="#FAFAFA" stroke-width="3" stroke-miterlimit="10" stroke-linecap="round"/>
<path d="M934.345 -96.1836L926.321 -55.1637L999.432 8.15051L1018.95 -4.10985" stroke="#FAFAFA" stroke-width="3" stroke-miterlimit="10" stroke-linecap="round"/>
<path d="M901.357 42.0373L890.656 77.7073" stroke="#FAFAFA" stroke-width="3" stroke-miterlimit="10" stroke-linecap="round"/>
<path d="M838.945 -25.7362L823.787 37.578L882.632 75.9219L957.527 138.346" stroke="#FAFAFA" stroke-width="3" stroke-miterlimit="10" stroke-linecap="round"/>
<path d="M571.465 -80.1318L558.984 -65.8634L559.874 -35.5454L578.599 -15.9271L673.999 0.124649" stroke="#FAFAFA" stroke-width="3" stroke-miterlimit="10" stroke-linecap="round"/>
<path d="M679.348 -0.765832L723.928 12.6099L738.194 -82.8056" stroke="#FAFAFA" stroke-width="3" stroke-miterlimit="10" stroke-linecap="round"/>
<path d="M303.887 -46.6423L281.133 44.3838L258.38 110.376L216.537 155.596" stroke="#FAFAFA" stroke-width="3" stroke-miterlimit="10" stroke-linecap="round"/>
<path d="M218.565 199.126L209.462 40.9699" stroke="#FAFAFA" stroke-width="3" stroke-miterlimit="10" stroke-linecap="round"/>
<path d="M-333.243 273.063L-121.684 54.5334L-57.5244 11.1736L4.90229 -37.3876" stroke="#FAFAFA" stroke-width="3" stroke-miterlimit="10" stroke-linecap="round"/>
<path d="M903.967 794.083L891.8 801.031L679.466 922.283" stroke="#FAFAFA" stroke-width="3" stroke-miterlimit="10" stroke-linecap="round"/>
<path d="M971.122 926.834L891.8 801.031" stroke="#FAFAFA" stroke-width="3" stroke-miterlimit="10" stroke-linecap="round"/>
<path d="M935.57 872.31L720.674 988.467" stroke="#FAFAFA" stroke-width="3" stroke-miterlimit="10" stroke-linecap="round"/>
<path d="M998.729 923.916L1022.48 893.646" stroke="#FAFAFA" stroke-width="3" stroke-miterlimit="10" stroke-linecap="round"/>
<path d="M1041.44 875.47L955.32 854.136L932.9 863.891" stroke="#FAFAFA" stroke-width="3" stroke-miterlimit="10" stroke-linecap="round"/>
<path d="M1054.87 860.457L1119.65 753.783" stroke="#FAFAFA" stroke-width="3" stroke-miterlimit="10" stroke-linecap="round"/>
<path d="M627.951 449.285V538.589" stroke="#FAFAFA" stroke-width="3" stroke-miterlimit="10" stroke-linecap="round"/>
<path d="M503.964 985.825L420.098 985.216L417.737 868.996" stroke="#FAFAFA" stroke-width="3" stroke-miterlimit="10" stroke-linecap="round"/>
<path d="M367.348 853.246L366.561 986.326L235.865 983.962" stroke="#FAFAFA" stroke-width="3" stroke-miterlimit="10" stroke-linecap="round"/>
<path d="M201.407 237.463L345.274 275.564C353.335 277.699 361.611 272.941 363.821 264.897L382.823 195.76" stroke="#FAFAFA" stroke-width="3" stroke-miterlimit="10" stroke-linecap="round"/>
<path d="M276.158 217.648L229.634 349.867" stroke="#FAFAFA" stroke-width="3" stroke-miterlimit="10" stroke-linecap="round"/>
<path d="M194.784 342.853L253.016 355.166L263.895 339.093" stroke="#FAFAFA" stroke-width="3" stroke-miterlimit="10" stroke-linecap="round"/>
<path d="M209.923 241.145L194.478 306.832L189.95 418.57L174.058 423.103" stroke="#FAFAFA" stroke-width="3" stroke-miterlimit="10" stroke-linecap="round"/>
<path d="M236.724 722.413L244.507 656.844L242.252 633.884L207.053 630.364" stroke="#FAFAFA" stroke-width="3" stroke-miterlimit="10" stroke-linecap="round"/>
<path d="M368.238 637.962L365.729 543.291L405.422 539.399L420.493 736.699L643.359 739.384" stroke="#FAFAFA" stroke-width="3" stroke-miterlimit="10" stroke-linecap="round"/>
<path d="M-90.3513 654.777L-17.733 611.926L121.816 442.006" stroke="#FAFAFA" stroke-width="3" stroke-miterlimit="10" stroke-linecap="round"/>
<path d="M21.1328 334.441L151.63 472.014L176.317 466.723" stroke="#FAFAFA" stroke-width="3" stroke-miterlimit="10" stroke-linecap="round"/>
<path d="M141.737 295.859L-81.6373 505.885" stroke="#FAFAFA" stroke-width="3" stroke-miterlimit="10" stroke-linecap="round"/>
<path d="M-70.6141 598.252L16.3075 507.226L-32.2568 458.677" stroke="#FAFAFA" stroke-width="3" stroke-miterlimit="10" stroke-linecap="round"/>
<path d="M-21.3648 617.737L-9.01911 656.956L70.1354 654.777L200.122 601.757" stroke="#FAFAFA" stroke-width="3" stroke-miterlimit="10" stroke-linecap="round"/>
<path d="M0.422119 782.606L43.9931 779.701L102.088 754.281L69.0249 656.369" stroke="#FAFAFA" stroke-width="3" stroke-miterlimit="10" stroke-linecap="round"/>
<path d="M47.6223 734.669L88.2885 720.143" stroke="#FAFAFA" stroke-width="3" stroke-miterlimit="10" stroke-linecap="round"/>
<path d="M35.3726 696.83L75.945 683.829" stroke="#FAFAFA" stroke-width="3" stroke-miterlimit="10" stroke-linecap="round"/>
<path d="M448.486 188.945L446.393 155.174L493.22 135.504L503.161 106.919L422.654 57.0195L343.407 116.708L369.823 133.343L382.683 137.804C389.324 140.109 393.2 147.007 391.716 153.878L383.613 191.401" stroke="#FAFAFA" stroke-width="3" stroke-miterlimit="10" stroke-linecap="round"/>
<path d="M362.556 193.826L369.742 160.035C370.224 157.765 368.978 155.484 366.807 154.666L345.725 146.71" stroke="#FAFAFA" stroke-width="3" stroke-miterlimit="10" stroke-linecap="round"/>
<path d="M233.335 200.627L318.834 94.7085L344.095 -8.29626" stroke="#FAFAFA" stroke-width="3" stroke-miterlimit="10" stroke-linecap="round"/>
<path d="M281.134 44.3837L326.608 52.9225" stroke="#FAFAFA" stroke-width="3" stroke-miterlimit="10" stroke-linecap="round"/>
<path d="M411.282 62.1161L388.072 37.6151" stroke="#FAFAFA" stroke-width="3" stroke-miterlimit="10" stroke-linecap="round"/>
<path d="M325.689 73.0276L336.385 77.9649L441.686 -7.6087" stroke="#FAFAFA" stroke-width="3" stroke-miterlimit="10" stroke-linecap="round"/>
<path d="M342.141 0.620239L371.758 3.91178" stroke="#FAFAFA" stroke-width="3" stroke-miterlimit="10" stroke-linecap="round"/>
<path d="M196.816 565.624L215.8 538.648L238.667 536.016" stroke="#FAFAFA" stroke-width="3" stroke-miterlimit="10" stroke-linecap="round"/>
<path d="M217.758 495.823L215.8 538.648" stroke="#FAFAFA" stroke-width="3" stroke-miterlimit="10" stroke-linecap="round"/>
<path d="M0.153564 810.24L49.4751 793.182L58.5407 806.782" stroke="#FAFAFA" stroke-width="3" stroke-miterlimit="10" stroke-linecap="round"/>
<path d="M-9.01895 656.956L-0.896208 728.348L-3.12004 878.519L-10.9067 915.226L-14.3265 957.678L-55.5624 1035.68" stroke="#FAFAFA" stroke-width="3" stroke-miterlimit="10" stroke-linecap="round"/>
<path d="M0.336853 742.846L22.6843 744.686L25.0544 758.387" stroke="#FAFAFA" stroke-width="3" stroke-miterlimit="10" stroke-linecap="round"/>
<path d="M69.9368 1040.16L65.4542 992.645L122.246 918.887L125.515 914.643L218.742 833.953" stroke="#FAFAFA" stroke-width="3" stroke-miterlimit="10" stroke-linecap="round"/>
<path d="M235.332 953.834L170.334 941.539L119.446 924.741" stroke="#FAFAFA" stroke-width="3" stroke-miterlimit="10" stroke-linecap="round"/>
<path d="M142.547 1039.27L171.232 943.333" stroke="#FAFAFA" stroke-width="3" stroke-miterlimit="10" stroke-linecap="round"/>
<path d="M-34.0488 993.54L8.97878 1014.16L65.4542 992.645L233.084 1030.3" stroke="#FAFAFA" stroke-width="3" stroke-miterlimit="10" stroke-linecap="round"/>
<path d="M-12.5346 949.609L61.8689 953.195L95.9335 928.091L111.171 933.472" stroke="#FAFAFA" stroke-width="3" stroke-miterlimit="10" stroke-linecap="round"/>
<path d="M22.9112 950.209L9.87585 924.505L-11.387 917.88" stroke="#FAFAFA" stroke-width="3" stroke-miterlimit="10" stroke-linecap="round"/>
<path d="M-1.42456 876.166L53.2765 869.924L111.09 845.807" stroke="#FAFAFA" stroke-width="3" stroke-miterlimit="10" stroke-linecap="round"/>
<path d="M-66.3783 337.074L20.6022 246.362L49.595 212.159L68.1801 148.214L52.5696 132.601L68.1801 114.013L57.0304 46.3504" stroke="#FAFAFA" stroke-width="3" stroke-miterlimit="10" stroke-linecap="round"/>
<path d="M107.583 -25.0312L76.3596 -17.5947L71.1546 41.1445L45.1342 47.8368L-9.13477 132.601L20.6022 145.241" stroke="#FAFAFA" stroke-width="3" stroke-miterlimit="10" stroke-linecap="round"/>
<path d="M-6.16028 -26.5176L45.0992 46.5621L19.1159 57.5019L-34.4111 124.422" stroke="#FAFAFA" stroke-width="3" stroke-miterlimit="10" stroke-linecap="round"/>
<path d="M16.1416 153.419L-128.082 333.356" stroke="#FAFAFA" stroke-width="3" stroke-miterlimit="10" stroke-linecap="round"/>
<path d="M23.5768 41.8889L-1.69937 5.45486L-18.7982 11.4028" stroke="#FAFAFA" stroke-width="3" stroke-miterlimit="10" stroke-linecap="round"/>
<path d="M984.131 1044.85L928.01 984.835" stroke="#FAFAFA" stroke-width="3" stroke-miterlimit="10" stroke-linecap="round"/>
<path d="M640.354 945.444L505.669 941.888" stroke="#FAFAFA" stroke-width="3" stroke-miterlimit="10" stroke-linecap="round"/>
<path d="M580.884 -10.0359L592.363 741.132V1134.76" stroke="#FAFAFA" stroke-width="3" stroke-miterlimit="10" stroke-linecap="round"/>
<path d="M1401.51 1040.83L1410.86 884.568" stroke="#FAFAFA" stroke-width="3" stroke-miterlimit="10" stroke-linecap="round"/>
<path d="M633.32 1035.48L640.334 945.859" stroke="#FAFAFA" stroke-width="3" stroke-miterlimit="10" stroke-linecap="round"/>
<path d="M699.431 1041.81L657.935 980.614L622.77 1001.01" stroke="#FAFAFA" stroke-width="3" stroke-miterlimit="10" stroke-linecap="round"/>
<path d="M916.893 958.259L843.849 829.698" stroke="#FAFAFA" stroke-width="3" stroke-miterlimit="10" stroke-linecap="round"/>
<path d="M783.087 865.988L860.758 990.34" stroke="#FAFAFA" stroke-width="3" stroke-miterlimit="10" stroke-linecap="round"/>
<path d="M953.74 899.177L845.132 962.373" stroke="#FAFAFA" stroke-width="3" stroke-miterlimit="10" stroke-linecap="round"/>
<path d="M733.314 892.856L772.027 960.02" stroke="#FAFAFA" stroke-width="3" stroke-miterlimit="10" stroke-linecap="round"/>
<path d="M800.83 770.278L783.666 837.51L680.025 812.381" stroke="#FAFAFA" stroke-width="3" stroke-miterlimit="10" stroke-linecap="round"/>
<path d="M770.862 764.265L765.349 787.888" stroke="#FAFAFA" stroke-width="3" stroke-miterlimit="10" stroke-linecap="round"/>
<path d="M845.446 71.7333L848.187 159.038" stroke="#FAFAFA" stroke-width="3" stroke-miterlimit="10" stroke-linecap="round"/>
<path d="M795.455 140.766L805.954 103.566L844.294 101.783" stroke="#FAFAFA" stroke-width="3" stroke-miterlimit="10" stroke-linecap="round"/>
<path d="M712.922 173.483L719.471 103.566L678.458 96.4329" stroke="#FAFAFA" stroke-width="3" stroke-miterlimit="10" stroke-linecap="round"/>
<path d="M-52.9698 352.632L19.8842 275.303L11.5672 257.193" stroke="#FAFAFA" stroke-width="3" stroke-miterlimit="10" stroke-linecap="round"/>
<path d="M488.354 349.71L565.869 354.001L566.142 403.289L491.121 399.971" stroke="#FAFAFA" stroke-width="3" stroke-miterlimit="10" stroke-linecap="round"/>
<path d="M526.633 355.107L527.722 401.126" stroke="#FAFAFA" stroke-width="3" stroke-miterlimit="10" stroke-linecap="round"/>
<path d="M417.25 377.932L412.946 441.262" stroke="#FAFAFA" stroke-width="3" stroke-miterlimit="10" stroke-linecap="round"/>
<path d="M585.716 245.436L671.459 246.75" stroke="#FAFAFA" stroke-width="3" stroke-miterlimit="10" stroke-linecap="round"/>
<path d="M1426.38 371.241L1471.81 382.6L1457.38 418.722" stroke="#FAFAFA" stroke-width="3" stroke-miterlimit="10" stroke-linecap="round"/>
<path d="M142.383 120.364L210.003 112.758" stroke="#FAFAFA" stroke-width="3" stroke-miterlimit="10" stroke-linecap="round"/>
<path d="M145.253 144.435L213.699 136.927" stroke="#FAFAFA" stroke-width="3" stroke-miterlimit="10" stroke-linecap="round"/>
<path d="M501.263 905.863L419.382 904.287" stroke="#FAFAFA" stroke-width="3" stroke-miterlimit="10" stroke-linecap="round"/>
<path d="M501.263 949.958L419.878 949.611" stroke="#FAFAFA" stroke-width="3" stroke-miterlimit="10" stroke-linecap="round"/>
<path d="M320.462 88.1737L338.074 96.7387L385.093 60.3767L399.473 74.643" stroke="#FAFAFA" stroke-width="3" stroke-miterlimit="10" stroke-linecap="round"/>
<path d="M532.606 700.53L499.076 740.401" stroke="#FAFAFA" stroke-width="3" stroke-miterlimit="10" stroke-linecap="round"/>
<path d="M586.528 640.946L553.393 678.412" stroke="#FAFAFA" stroke-width="3" stroke-miterlimit="10" stroke-linecap="round"/>
<path d="M499.076 638.75L532.165 678.412" stroke="#FAFAFA" stroke-width="3" stroke-miterlimit="10" stroke-linecap="round"/>
<path d="M553.836 701.414L589.662 739.456" stroke="#FAFAFA" stroke-width="3" stroke-miterlimit="10" stroke-linecap="round"/>
<path d="M542.311 704.581C550.33 704.581 556.83 698.079 556.83 690.059C556.83 682.039 550.33 675.537 542.311 675.537C534.292 675.537 527.792 682.039 527.792 690.059C527.792 698.079 534.292 704.581 542.311 704.581Z" stroke="#FAFAFA" stroke-width="3" stroke-miterlimit="10" stroke-linecap="round"/>
<path d="M237.104 1036.61L233.385 846.298L671.705 857.698" stroke="#FAFAFA" stroke-width="6" stroke-miterlimit="10" stroke-linecap="round"/>
<path d="M118.687 -63.3969L117.77 -29.4665L137.942 117.258L157.197 229.136L173.7 452.891L197.538 580.357L205.79 630.794C205.79 630.794 210.375 684.899 202.121 713.327C193.869 741.754 195.792 812.496 233.584 846.357" stroke="#FAFAFA" stroke-width="6" stroke-miterlimit="10" stroke-linecap="round"/>
<path d="M-284.301 615.368L-138.962 481.273L157.354 205.193L673.369 179.276L957.288 146.598L1017 81.2411L1112.77 -24.6842L1189.38 -50.6018L1270.5 -69.7574" stroke="#FAFAFA" stroke-width="6" stroke-miterlimit="10" stroke-linecap="round"/>
<path d="M1331.06 607.27L1357.25 396.692L1440.52 181.878L1465.54 -28.9709" stroke="#FAFAFA" stroke-width="6" stroke-miterlimit="10" stroke-linecap="round"/>
<path d="M1299.79 1054.56L1331.06 607.271" stroke="#FAFAFA" stroke-width="6" stroke-miterlimit="10" stroke-linecap="round"/>
<path d="M872.29 1229.68L794.981 1121.01L677.974 922.479L673.794 -9.55347" stroke="#FAFAFA" stroke-width="6" stroke-miterlimit="10" stroke-linecap="round"/>
<path d="M1358.09 396.692L992.475 56.7358L843.024 -73.4832" stroke="#FAFAFA" stroke-width="6" stroke-miterlimit="10" stroke-linecap="round"/>
<path d="M1356.41 395.348L1458.15 418.317L1476.25 497.113L1517.77 516.279L1671.08 518.41L1764.77 541.837" stroke="#FAFAFA" stroke-width="6" stroke-miterlimit="10" stroke-linecap="round"/>
<path d="M1331.46 581.091L1164.81 776.198L1068.7 947.557L903.633 1150.26" stroke="#FAFAFA" stroke-width="6" stroke-miterlimit="10" stroke-linecap="round"/>
</g>
<circle cx="382" cy="818" r="21" fill="#1E40AF"/>
<path d="M381.062 809.562V808.938C381.062 808.689 381.161 808.45 381.337 808.275C381.513 808.099 381.751 808 382 808C382.249 808 382.487 808.099 382.663 808.275C382.839 808.45 382.938 808.689 382.938 808.938V809.562C382.938 809.811 382.839 810.05 382.663 810.225C382.487 810.401 382.249 810.5 382 810.5C381.751 810.5 381.513 810.401 381.337 810.225C381.161 810.05 381.062 809.811 381.062 809.562ZM387.625 812.375C387.748 812.375 387.87 812.351 387.984 812.304C388.098 812.257 388.201 812.188 388.288 812.101L388.913 811.476C389 811.389 389.07 811.285 389.117 811.171C389.164 811.057 389.188 810.935 389.188 810.812C389.188 810.688 389.164 810.566 389.117 810.452C389.07 810.338 389 810.235 388.913 810.148C388.826 810.06 388.723 809.991 388.609 809.944C388.495 809.897 388.373 809.873 388.249 809.873C388.126 809.873 388.004 809.897 387.89 809.944C387.776 809.991 387.672 810.06 387.585 810.148L386.96 810.773C386.828 810.904 386.738 811.071 386.702 811.254C386.665 811.436 386.684 811.625 386.755 811.797C386.826 811.969 386.947 812.115 387.102 812.218C387.257 812.321 387.439 812.376 387.625 812.375ZM375.712 812.101C375.888 812.277 376.127 812.376 376.376 812.376C376.625 812.376 376.864 812.277 377.04 812.101C377.216 811.925 377.315 811.686 377.315 811.437C377.315 811.188 377.216 810.949 377.04 810.773L376.415 810.148C376.239 809.972 376 809.873 375.751 809.873C375.502 809.873 375.263 809.972 375.087 810.148C374.911 810.324 374.812 810.563 374.812 810.812C374.812 811.061 374.911 811.3 375.087 811.476L375.712 812.101ZM390.438 821.75V823.625C390.438 824.039 390.273 824.437 389.98 824.73C389.687 825.023 389.289 825.188 388.875 825.188H375.125C374.711 825.188 374.313 825.023 374.02 824.73C373.727 824.437 373.563 824.039 373.563 823.625V821.75C373.562 821.39 373.687 821.041 373.915 820.762C374.142 820.483 374.46 820.291 374.812 820.219V818.938C374.812 817.031 375.57 815.203 376.918 813.855C378.266 812.507 380.094 811.75 382 811.75H382.055C385.984 811.78 389.188 815.039 389.188 819.016V820.219C389.54 820.291 389.858 820.483 390.085 820.762C390.313 821.041 390.438 821.39 390.438 821.75ZM376.688 818.938V820.188H387.312V819.016C387.312 816.065 384.948 813.647 382.041 813.625H382C380.591 813.625 379.24 814.185 378.243 815.181C377.247 816.177 376.688 817.529 376.688 818.938ZM388.562 822.062H375.438V823.312H388.562V822.062ZM382.656 816.85C382.992 816.956 383.298 817.141 383.547 817.39C383.797 817.639 383.982 817.945 384.088 818.281C384.162 818.518 384.328 818.716 384.548 818.831C384.769 818.946 385.026 818.969 385.263 818.895C385.501 818.82 385.698 818.654 385.813 818.434C385.928 818.213 385.951 817.956 385.877 817.719C385.68 817.095 385.336 816.528 384.874 816.065C384.411 815.603 383.844 815.259 383.22 815.063C382.983 814.988 382.726 815.011 382.505 815.126C382.285 815.241 382.119 815.439 382.045 815.676C381.97 815.913 381.993 816.17 382.108 816.391C382.223 816.611 382.421 816.777 382.658 816.852L382.656 816.85Z" fill="#FAFAFA"/>
<path d="M382.866 844.5C382.481 845.167 381.519 845.167 381.134 844.5L375.938 835.5C375.553 834.833 376.034 834 376.804 834H387.196C387.966 834 388.447 834.833 388.062 835.5L382.866 844.5Z" fill="#1E40AF"/>
<circle cx="1198" cy="480" r="21" fill="#C2410C"/>
<path d="M1197.06 471.562V470.938C1197.06 470.689 1197.16 470.45 1197.34 470.275C1197.51 470.099 1197.75 470 1198 470C1198.25 470 1198.49 470.099 1198.66 470.275C1198.84 470.45 1198.94 470.689 1198.94 470.938V471.562C1198.94 471.811 1198.84 472.05 1198.66 472.225C1198.49 472.401 1198.25 472.5 1198 472.5C1197.75 472.5 1197.51 472.401 1197.34 472.225C1197.16 472.05 1197.06 471.811 1197.06 471.562ZM1203.62 474.375C1203.75 474.375 1203.87 474.351 1203.98 474.304C1204.1 474.257 1204.2 474.188 1204.29 474.101L1204.91 473.476C1205 473.389 1205.07 473.285 1205.12 473.171C1205.16 473.057 1205.19 472.935 1205.19 472.812C1205.19 472.688 1205.16 472.566 1205.12 472.452C1205.07 472.338 1205 472.235 1204.91 472.148C1204.83 472.06 1204.72 471.991 1204.61 471.944C1204.49 471.897 1204.37 471.873 1204.25 471.873C1204.13 471.873 1204 471.897 1203.89 471.944C1203.78 471.991 1203.67 472.06 1203.59 472.148L1202.96 472.773C1202.83 472.904 1202.74 473.071 1202.7 473.254C1202.67 473.436 1202.68 473.625 1202.76 473.797C1202.83 473.969 1202.95 474.115 1203.1 474.218C1203.26 474.321 1203.44 474.376 1203.62 474.375ZM1191.71 474.101C1191.89 474.277 1192.13 474.376 1192.38 474.376C1192.62 474.376 1192.86 474.277 1193.04 474.101C1193.22 473.925 1193.31 473.686 1193.31 473.437C1193.31 473.188 1193.22 472.949 1193.04 472.773L1192.41 472.148C1192.24 471.972 1192 471.873 1191.75 471.873C1191.5 471.873 1191.26 471.972 1191.09 472.148C1190.91 472.324 1190.81 472.563 1190.81 472.812C1190.81 473.061 1190.91 473.3 1191.09 473.476L1191.71 474.101ZM1206.44 483.75V485.625C1206.44 486.039 1206.27 486.437 1205.98 486.73C1205.69 487.023 1205.29 487.188 1204.88 487.188H1191.12C1190.71 487.188 1190.31 487.023 1190.02 486.73C1189.73 486.437 1189.56 486.039 1189.56 485.625V483.75C1189.56 483.39 1189.69 483.041 1189.91 482.762C1190.14 482.483 1190.46 482.291 1190.81 482.219V480.938C1190.81 479.031 1191.57 477.203 1192.92 475.855C1194.27 474.507 1196.09 473.75 1198 473.75H1198.06C1201.98 473.78 1205.19 477.039 1205.19 481.016V482.219C1205.54 482.291 1205.86 482.483 1206.09 482.762C1206.31 483.041 1206.44 483.39 1206.44 483.75ZM1192.69 480.938V482.188H1203.31V481.016C1203.31 478.065 1200.95 475.647 1198.04 475.625H1198C1196.59 475.625 1195.24 476.185 1194.24 477.181C1193.25 478.177 1192.69 479.529 1192.69 480.938ZM1204.56 484.062H1191.44V485.312H1204.56V484.062ZM1198.66 478.85C1198.99 478.956 1199.3 479.141 1199.55 479.39C1199.8 479.639 1199.98 479.945 1200.09 480.281C1200.16 480.518 1200.33 480.716 1200.55 480.831C1200.77 480.946 1201.03 480.969 1201.26 480.895C1201.5 480.82 1201.7 480.654 1201.81 480.434C1201.93 480.213 1201.95 479.956 1201.88 479.719C1201.68 479.095 1201.34 478.528 1200.87 478.065C1200.41 477.603 1199.84 477.259 1199.22 477.063C1198.98 476.988 1198.73 477.011 1198.51 477.126C1198.28 477.241 1198.12 477.439 1198.04 477.676C1197.97 477.913 1197.99 478.17 1198.11 478.391C1198.22 478.611 1198.42 478.777 1198.66 478.852L1198.66 478.85Z" fill="#FAFAFA"/>
<path d="M1198.87 506.5C1198.48 507.167 1197.52 507.167 1197.13 506.5L1191.94 497.5C1191.55 496.833 1192.03 496 1192.8 496H1203.2C1203.97 496 1204.45 496.833 1204.06 497.5L1198.87 506.5Z" fill="#C2410C"/>
<circle cx="1165" cy="745" r="21" fill="#C2410C"/>
<path d="M1164.06 736.562V735.938C1164.06 735.689 1164.16 735.45 1164.34 735.275C1164.51 735.099 1164.75 735 1165 735C1165.25 735 1165.49 735.099 1165.66 735.275C1165.84 735.45 1165.94 735.689 1165.94 735.938V736.562C1165.94 736.811 1165.84 737.05 1165.66 737.225C1165.49 737.401 1165.25 737.5 1165 737.5C1164.75 737.5 1164.51 737.401 1164.34 737.225C1164.16 737.05 1164.06 736.811 1164.06 736.562ZM1170.62 739.375C1170.75 739.375 1170.87 739.351 1170.98 739.304C1171.1 739.257 1171.2 739.188 1171.29 739.101L1171.91 738.476C1172 738.389 1172.07 738.285 1172.12 738.171C1172.16 738.057 1172.19 737.935 1172.19 737.812C1172.19 737.688 1172.16 737.566 1172.12 737.452C1172.07 737.338 1172 737.235 1171.91 737.148C1171.83 737.06 1171.72 736.991 1171.61 736.944C1171.49 736.897 1171.37 736.873 1171.25 736.873C1171.13 736.873 1171 736.897 1170.89 736.944C1170.78 736.991 1170.67 737.06 1170.59 737.148L1169.96 737.773C1169.83 737.904 1169.74 738.071 1169.7 738.254C1169.67 738.436 1169.68 738.625 1169.76 738.797C1169.83 738.969 1169.95 739.115 1170.1 739.218C1170.26 739.321 1170.44 739.376 1170.62 739.375ZM1158.71 739.101C1158.89 739.277 1159.13 739.376 1159.38 739.376C1159.62 739.376 1159.86 739.277 1160.04 739.101C1160.22 738.925 1160.31 738.686 1160.31 738.437C1160.31 738.188 1160.22 737.949 1160.04 737.773L1159.41 737.148C1159.24 736.972 1159 736.873 1158.75 736.873C1158.5 736.873 1158.26 736.972 1158.09 737.148C1157.91 737.324 1157.81 737.563 1157.81 737.812C1157.81 738.061 1157.91 738.3 1158.09 738.476L1158.71 739.101ZM1173.44 748.75V750.625C1173.44 751.039 1173.27 751.437 1172.98 751.73C1172.69 752.023 1172.29 752.188 1171.88 752.188H1158.12C1157.71 752.188 1157.31 752.023 1157.02 751.73C1156.73 751.437 1156.56 751.039 1156.56 750.625V748.75C1156.56 748.39 1156.69 748.041 1156.91 747.762C1157.14 747.483 1157.46 747.291 1157.81 747.219V745.938C1157.81 744.031 1158.57 742.203 1159.92 740.855C1161.27 739.507 1163.09 738.75 1165 738.75H1165.06C1168.98 738.78 1172.19 742.039 1172.19 746.016V747.219C1172.54 747.291 1172.86 747.483 1173.09 747.762C1173.31 748.041 1173.44 748.39 1173.44 748.75ZM1159.69 745.938V747.188H1170.31V746.016C1170.31 743.065 1167.95 740.647 1165.04 740.625H1165C1163.59 740.625 1162.24 741.185 1161.24 742.181C1160.25 743.177 1159.69 744.529 1159.69 745.938ZM1171.56 749.062H1158.44V750.312H1171.56V749.062ZM1165.66 743.85C1165.99 743.956 1166.3 744.141 1166.55 744.39C1166.8 744.639 1166.98 744.945 1167.09 745.281C1167.16 745.518 1167.33 745.716 1167.55 745.831C1167.77 745.946 1168.03 745.969 1168.26 745.895C1168.5 745.82 1168.7 745.654 1168.81 745.434C1168.93 745.213 1168.95 744.956 1168.88 744.719C1168.68 744.095 1168.34 743.528 1167.87 743.065C1167.41 742.603 1166.84 742.259 1166.22 742.063C1165.98 741.988 1165.73 742.011 1165.51 742.126C1165.28 742.241 1165.12 742.439 1165.04 742.676C1164.97 742.913 1164.99 743.17 1165.11 743.391C1165.22 743.611 1165.42 743.777 1165.66 743.852L1165.66 743.85Z" fill="#FAFAFA"/>
<path d="M1165.87 771.5C1165.48 772.167 1164.52 772.167 1164.13 771.5L1158.94 762.5C1158.55 761.833 1159.03 761 1159.8 761H1170.2C1170.97 761 1171.45 761.833 1171.06 762.5L1165.87 771.5Z" fill="#C2410C"/>
<circle cx="349" cy="246" r="21" fill="#C2410C"/>
<path d="M348.062 237.562V236.938C348.062 236.689 348.161 236.45 348.337 236.275C348.513 236.099 348.751 236 349 236C349.249 236 349.487 236.099 349.663 236.275C349.839 236.45 349.938 236.689 349.938 236.938V237.562C349.938 237.811 349.839 238.05 349.663 238.225C349.487 238.401 349.249 238.5 349 238.5C348.751 238.5 348.513 238.401 348.337 238.225C348.161 238.05 348.062 237.811 348.062 237.562ZM354.625 240.375C354.748 240.375 354.87 240.351 354.984 240.304C355.098 240.257 355.201 240.188 355.288 240.101L355.913 239.476C356 239.389 356.07 239.285 356.117 239.171C356.164 239.057 356.188 238.935 356.188 238.812C356.188 238.688 356.164 238.566 356.117 238.452C356.07 238.338 356 238.235 355.913 238.148C355.826 238.06 355.723 237.991 355.609 237.944C355.495 237.897 355.373 237.873 355.249 237.873C355.126 237.873 355.004 237.897 354.89 237.944C354.776 237.991 354.672 238.06 354.585 238.148L353.96 238.773C353.828 238.904 353.738 239.071 353.702 239.254C353.665 239.436 353.684 239.625 353.755 239.797C353.826 239.969 353.947 240.115 354.102 240.218C354.257 240.321 354.439 240.376 354.625 240.375ZM342.712 240.101C342.888 240.277 343.127 240.376 343.376 240.376C343.625 240.376 343.864 240.277 344.04 240.101C344.216 239.925 344.315 239.686 344.315 239.437C344.315 239.188 344.216 238.949 344.04 238.773L343.415 238.148C343.239 237.972 343 237.873 342.751 237.873C342.502 237.873 342.263 237.972 342.087 238.148C341.911 238.324 341.812 238.563 341.812 238.812C341.812 239.061 341.911 239.3 342.087 239.476L342.712 240.101ZM357.438 249.75V251.625C357.438 252.039 357.273 252.437 356.98 252.73C356.687 253.023 356.289 253.188 355.875 253.188H342.125C341.711 253.188 341.313 253.023 341.02 252.73C340.727 252.437 340.563 252.039 340.563 251.625V249.75C340.562 249.39 340.687 249.041 340.915 248.762C341.142 248.483 341.46 248.291 341.812 248.219V246.938C341.812 245.031 342.57 243.203 343.918 241.855C345.266 240.507 347.094 239.75 349 239.75H349.055C352.984 239.78 356.188 243.039 356.188 247.016V248.219C356.54 248.291 356.858 248.483 357.085 248.762C357.313 249.041 357.438 249.39 357.438 249.75ZM343.688 246.938V248.188H354.312V247.016C354.312 244.065 351.948 241.647 349.041 241.625H349C347.591 241.625 346.24 242.185 345.243 243.181C344.247 244.177 343.688 245.529 343.688 246.938ZM355.562 250.062H342.438V251.312H355.562V250.062ZM349.656 244.85C349.992 244.956 350.298 245.141 350.547 245.39C350.797 245.639 350.982 245.945 351.088 246.281C351.162 246.518 351.328 246.716 351.548 246.831C351.769 246.946 352.026 246.969 352.263 246.895C352.501 246.82 352.698 246.654 352.813 246.434C352.928 246.213 352.951 245.956 352.877 245.719C352.68 245.095 352.336 244.528 351.874 244.065C351.411 243.603 350.844 243.259 350.22 243.063C349.983 242.988 349.726 243.011 349.505 243.126C349.285 243.241 349.119 243.439 349.045 243.676C348.97 243.913 348.993 244.17 349.108 244.391C349.223 244.611 349.421 244.777 349.658 244.852L349.656 244.85Z" fill="#FAFAFA"/>
<path d="M349.866 272.5C349.481 273.167 348.519 273.167 348.134 272.5L342.938 263.5C342.553 262.833 343.034 262 343.804 262H354.196C354.966 262 355.447 262.833 355.062 263.5L349.866 272.5Z" fill="#C2410C"/>
<defs>
<clipPath id="clip0_7_1317">
<rect width="1610" height="1024" fill="white" transform="translate(-85)"/>
</clipPath>
</defs>
</svg>
